# Tiled2Unity generated file. Do not modify by hand.
# Wavefront file for 'Dungeon02_mesh_0004.obj'

# Vertices (Count = 16)
v -88 -37 0
v -89 -37 0
v -89 -36 0
v -88 -36 0
v -87 -37 0
v -88 -37 0
v -88 -36 0
v -87 -36 0
v -88 -36 0
v -89 -36 0
v -89 -35 0
v -88 -35 0
v -87 -36 0
v -88 -36 0
v -88 -35 0
v -87 -35 0

# Texture cooridinates (Count = 6)
vt 0.05 0.8
vt 0.075 0.8
vt 0.075 0.84
vt 0.05 0.84
vt 0.075 0.88
vt 0.05 0.88

# Normal
vn 0 0 -1

# Mesh description
g Dungeon02_mesh_0004

# Faces
f 1/1/1 2/2/1 3/3/1 4/4/1
f 5/1/1 6/2/1 7/3/1 8/4/1
f 9/4/1 10/3/1 11/5/1 12/6/1
f 13/4/1 14/3/1 15/5/1 16/6/1

