# Tiled2Unity generated file. Do not modify by hand.
# Wavefront file for 'Dungeon01_mesh_0003.obj'

# Vertices (Count = 324)
v -2 -83 0
v -3 -83 0
v -3 -82 0
v -2 -82 0
v -3 -83 0
v -4 -83 0
v -4 -82 0
v -3 -82 0
v -4 -83 0
v -5 -83 0
v -5 -82 0
v -4 -82 0
v -5 -83 0
v -6 -83 0
v -6 -82 0
v -5 -82 0
v -1 -82 0
v -2 -82 0
v -2 -81 0
v -1 -81 0
v -2 -82 0
v -3 -82 0
v -3 -81 0
v -2 -81 0
v -4 -82 0
v -5 -82 0
v -5 -81 0
v -4 -81 0
v -5 -82 0
v -6 -82 0
v -6 -81 0
v -5 -81 0
v -32 -82 0
v -33 -82 0
v -33 -81 0
v -32 -81 0
v -39 -82 0
v -40 -82 0
v -40 -81 0
v -39 -81 0
v -40 -82 0
v -41 -82 0
v -41 -81 0
v -40 -81 0
v -41 -82 0
v -42 -82 0
v -42 -81 0
v -41 -81 0
v -49 -82 0
v -50 -82 0
v -50 -81 0
v -49 -81 0
v -50 -82 0
v -51 -82 0
v -51 -81 0
v -50 -81 0
v -51 -82 0
v -52 -82 0
v -52 -81 0
v -51 -81 0
v -58 -82 0
v -59 -82 0
v -59 -81 0
v -58 -81 0
v -1 -81 0
v -2 -81 0
v -2 -80 0
v -1 -80 0
v -2 -81 0
v -3 -81 0
v -3 -80 0
v -2 -80 0
v -4 -81 0
v -5 -81 0
v -5 -80 0
v -4 -80 0
v -39 -81 0
v -40 -81 0
v -40 -80 0
v -39 -80 0
v -40 -81 0
v -41 -81 0
v -41 -80 0
v -40 -80 0
v -41 -81 0
v -42 -81 0
v -42 -80 0
v -41 -80 0
v -49 -81 0
v -50 -81 0
v -50 -80 0
v -49 -80 0
v -50 -81 0
v -51 -81 0
v -51 -80 0
v -50 -80 0
v -51 -81 0
v -52 -81 0
v -52 -80 0
v -51 -80 0
v -2 -80 0
v -3 -80 0
v -3 -79 0
v -2 -79 0
v -3 -80 0
v -4 -80 0
v -4 -79 0
v -3 -79 0
v -4 -80 0
v -5 -80 0
v -5 -79 0
v -4 -79 0
v -39 -80 0
v -40 -80 0
v -40 -79 0
v -39 -79 0
v -40 -80 0
v -41 -80 0
v -41 -79 0
v -40 -79 0
v -41 -80 0
v -42 -80 0
v -42 -79 0
v -41 -79 0
v -49 -80 0
v -50 -80 0
v -50 -79 0
v -49 -79 0
v -50 -80 0
v -51 -80 0
v -51 -79 0
v -50 -79 0
v -51 -80 0
v -52 -80 0
v -52 -79 0
v -51 -79 0
v -44 -77 0
v -45 -77 0
v -45 -76 0
v -44 -76 0
v -45 -77 0
v -46 -77 0
v -46 -76 0
v -45 -76 0
v -46 -77 0
v -47 -77 0
v -47 -76 0
v -46 -76 0
v -39 -76 0
v -40 -76 0
v -40 -75 0
v -39 -75 0
v -40 -76 0
v -41 -76 0
v -41 -75 0
v -40 -75 0
v -41 -76 0
v -42 -76 0
v -42 -75 0
v -41 -75 0
v -44 -76 0
v -45 -76 0
v -45 -75 0
v -44 -75 0
v -45 -76 0
v -46 -76 0
v -46 -75 0
v -45 -75 0
v -46 -76 0
v -47 -76 0
v -47 -75 0
v -46 -75 0
v -49 -76 0
v -50 -76 0
v -50 -75 0
v -49 -75 0
v -50 -76 0
v -51 -76 0
v -51 -75 0
v -50 -75 0
v -51 -76 0
v -52 -76 0
v -52 -75 0
v -51 -75 0
v -58 -76 0
v -59 -76 0
v -59 -75 0
v -58 -75 0
v -33 -75 0
v -34 -75 0
v -34 -74 0
v -33 -74 0
v -34 -75 0
v -35 -75 0
v -35 -74 0
v -34 -74 0
v -39 -75 0
v -40 -75 0
v -40 -74 0
v -39 -74 0
v -40 -75 0
v -41 -75 0
v -41 -74 0
v -40 -74 0
v -41 -75 0
v -42 -75 0
v -42 -74 0
v -41 -74 0
v -44 -75 0
v -45 -75 0
v -45 -74 0
v -44 -74 0
v -45 -75 0
v -46 -75 0
v -46 -74 0
v -45 -74 0
v -46 -75 0
v -47 -75 0
v -47 -74 0
v -46 -74 0
v -49 -75 0
v -50 -75 0
v -50 -74 0
v -49 -74 0
v -50 -75 0
v -51 -75 0
v -51 -74 0
v -50 -74 0
v -51 -75 0
v -52 -75 0
v -52 -74 0
v -51 -74 0
v -57 -75 0
v -58 -75 0
v -58 -74 0
v -57 -74 0
v -58 -75 0
v -59 -75 0
v -59 -74 0
v -58 -74 0
v -32 -74 0
v -33 -74 0
v -33 -73 0
v -32 -73 0
v -34 -74 0
v -35 -74 0
v -35 -73 0
v -34 -73 0
v -39 -74 0
v -40 -74 0
v -40 -73 0
v -39 -73 0
v -40 -74 0
v -41 -74 0
v -41 -73 0
v -40 -73 0
v -41 -74 0
v -42 -74 0
v -42 -73 0
v -41 -73 0
v -49 -74 0
v -50 -74 0
v -50 -73 0
v -49 -73 0
v -50 -74 0
v -51 -74 0
v -51 -73 0
v -50 -73 0
v -51 -74 0
v -52 -74 0
v -52 -73 0
v -51 -73 0
v -57 -74 0
v -58 -74 0
v -58 -73 0
v -57 -73 0
v -58 -74 0
v -59 -74 0
v -59 -73 0
v -58 -73 0
v -1 -66 0
v -2 -66 0
v -2 -65 0
v -1 -65 0
v -4 -66 0
v -5 -66 0
v -5 -65 0
v -4 -65 0
v -2 -64 0
v -3 -64 0
v -3 -63 0
v -2 -63 0
v -18 -64 0
v -19 -64 0
v -19 -63 0
v -18 -63 0
v -20 -63 0
v -21 -63 0
v -21 -62 0
v -20 -62 0
v -9 -62 0
v -10 -62 0
v -10 -61 0
v -9 -61 0
v -13 -61 0
v -14 -61 0
v -14 -60 0
v -13 -60 0
v -23 -58 0
v -24 -58 0
v -24 -57 0
v -23 -57 0
v -8 -57 0
v -9 -57 0
v -9 -56 0
v -8 -56 0
v -20 -57 0
v -21 -57 0
v -21 -56 0
v -20 -56 0
v -22 -57 0
v -23 -57 0
v -23 -56 0
v -22 -56 0

# Texture cooridinates (Count = 43)
vt 0.025 0.5555556
vt 0.05 0.5555556
vt 0.05 0.5833334
vt 0.025 0.5833334
vt 0.075 0.5555556
vt 0.075 0.5833334
vt 0.1 0.5555556
vt 0.1 0.5833334
vt 0.075 0.6111111
vt 0.1 0.6111111
vt 0.1 0.6388889
vt 0.075 0.6388889
vt 0.7 0.8888889
vt 0.725 0.8888889
vt 0.725 0.9166667
vt 0.7 0.9166667
vt 0.375 0.6111111
vt 0.4 0.6111111
vt 0.4 0.6388889
vt 0.375 0.6388889
vt 0.425 0.6111111
vt 0.425 0.6388889
vt 0.45 0.6111111
vt 0.45 0.6388889
vt 0.725 0.9444444
vt 0.7 0.9444444
vt 0.025 0.6111111
vt 0.05 0.6111111
vt 0.05 0.6388889
vt 0.025 0.6388889
vt 0.4 0.6666666
vt 0.375 0.6666666
vt 0.425 0.6666666
vt 0.45 0.6666666
vt 0.4 0.6944444
vt 0.375 0.6944444
vt 0.425 0.6944444
vt 0.45 0.6944444
vt 0.675 0.9166667
vt 0.675 0.9444444
vt 0.675 0.8888889
vt 0.75 0.9166667
vt 0.75 0.9444444

# Normal
vn 0 0 -1

# Mesh description
g Dungeon01_mesh_0003

# Faces
f 1/1/1 2/2/1 3/3/1 4/4/1
f 5/2/1 6/5/1 7/6/1 8/3/1
f 9/2/1 10/5/1 11/6/1 12/3/1
f 13/5/1 14/7/1 15/8/1 16/6/1
f 17/1/1 18/2/1 19/3/1 20/4/1
f 21/9/1 22/10/1 23/11/1 24/12/1
f 25/1/1 26/2/1 27/3/1 28/4/1
f 29/9/1 30/10/1 31/11/1 32/12/1
f 33/13/1 34/14/1 35/15/1 36/16/1
f 37/17/1 38/18/1 39/19/1 40/20/1
f 41/18/1 42/21/1 43/22/1 44/19/1
f 45/21/1 46/23/1 47/24/1 48/22/1
f 49/17/1 50/18/1 51/19/1 52/20/1
f 53/18/1 54/21/1 55/22/1 56/19/1
f 57/21/1 58/23/1 59/24/1 60/22/1
f 61/16/1 62/15/1 63/25/1 64/26/1
f 65/27/1 66/28/1 67/29/1 68/30/1
f 69/5/1 70/7/1 71/8/1 72/6/1
f 73/6/1 74/8/1 75/10/1 76/9/1
f 77/20/1 78/19/1 79/31/1 80/32/1
f 81/19/1 82/22/1 83/33/1 84/31/1
f 85/22/1 86/24/1 87/34/1 88/33/1
f 89/20/1 90/19/1 91/31/1 92/32/1
f 93/19/1 94/22/1 95/33/1 96/31/1
f 97/22/1 98/24/1 99/34/1 100/33/1
f 101/27/1 102/28/1 103/29/1 104/30/1
f 105/28/1 106/9/1 107/12/1 108/29/1
f 109/9/1 110/10/1 111/11/1 112/12/1
f 113/32/1 114/31/1 115/35/1 116/36/1
f 117/31/1 118/33/1 119/37/1 120/35/1
f 121/33/1 122/34/1 123/38/1 124/37/1
f 125/32/1 126/31/1 127/35/1 128/36/1
f 129/31/1 130/33/1 131/37/1 132/35/1
f 133/33/1 134/34/1 135/38/1 136/37/1
f 137/17/1 138/18/1 139/19/1 140/20/1
f 141/18/1 142/21/1 143/22/1 144/19/1
f 145/21/1 146/23/1 147/24/1 148/22/1
f 149/17/1 150/18/1 151/19/1 152/20/1
f 153/18/1 154/21/1 155/22/1 156/19/1
f 157/21/1 158/23/1 159/24/1 160/22/1
f 161/20/1 162/19/1 163/31/1 164/32/1
f 165/19/1 166/22/1 167/33/1 168/31/1
f 169/22/1 170/24/1 171/34/1 172/33/1
f 173/17/1 174/18/1 175/19/1 176/20/1
f 177/18/1 178/21/1 179/22/1 180/19/1
f 181/21/1 182/23/1 183/24/1 184/22/1
f 185/13/1 186/14/1 187/15/1 188/16/1
f 189/13/1 190/14/1 191/15/1 192/16/1
f 193/13/1 194/14/1 195/15/1 196/16/1
f 197/20/1 198/19/1 199/31/1 200/32/1
f 201/19/1 202/22/1 203/33/1 204/31/1
f 205/22/1 206/24/1 207/34/1 208/33/1
f 209/32/1 210/31/1 211/35/1 212/36/1
f 213/31/1 214/33/1 215/37/1 216/35/1
f 217/33/1 218/34/1 219/38/1 220/37/1
f 221/20/1 222/19/1 223/31/1 224/32/1
f 225/19/1 226/22/1 227/33/1 228/31/1
f 229/22/1 230/24/1 231/34/1 232/33/1
f 233/13/1 234/14/1 235/15/1 236/16/1
f 237/15/1 238/16/1 239/13/1 240/14/1
f 241/39/1 242/16/1 243/26/1 244/40/1
f 245/13/1 246/14/1 247/15/1 248/16/1
f 249/32/1 250/31/1 251/35/1 252/36/1
f 253/31/1 254/33/1 255/37/1 256/35/1
f 257/33/1 258/34/1 259/38/1 260/37/1
f 261/32/1 262/31/1 263/35/1 264/36/1
f 265/31/1 266/33/1 267/37/1 268/35/1
f 269/33/1 270/34/1 271/38/1 272/37/1
f 273/39/1 274/16/1 275/26/1 276/40/1
f 277/41/1 278/13/1 279/16/1 280/39/1
f 281/39/1 282/16/1 283/26/1 284/40/1
f 285/39/1 286/16/1 287/26/1 288/40/1
f 289/15/1 290/42/1 291/43/1 292/25/1
f 293/41/1 294/13/1 295/16/1 296/39/1
f 297/39/1 298/16/1 299/26/1 300/40/1
f 301/15/1 302/42/1 303/43/1 304/25/1
f 305/39/1 306/16/1 307/26/1 308/40/1
f 309/16/1 310/15/1 311/25/1 312/26/1
f 313/15/1 314/42/1 315/43/1 316/25/1
f 317/15/1 318/42/1 319/43/1 320/25/1
f 321/15/1 322/42/1 323/43/1 324/25/1

