# Tiled2Unity generated file. Do not modify by hand.
# Wavefront file for 'Dungeon01_mesh_0005.obj'

# Vertices (Count = 216)
v -74 -106 0
v -75 -106 0
v -75 -105 0
v -74 -105 0
v -73 -103 0
v -74 -103 0
v -74 -102 0
v -73 -102 0
v -74 -103 0
v -75 -103 0
v -75 -102 0
v -74 -102 0
v -75 -103 0
v -76 -103 0
v -76 -102 0
v -75 -102 0
v -72 -102 0
v -73 -102 0
v -73 -101 0
v -72 -101 0
v -73 -102 0
v -74 -102 0
v -74 -101 0
v -73 -101 0
v -74 -102 0
v -75 -102 0
v -75 -101 0
v -74 -101 0
v -75 -102 0
v -76 -102 0
v -76 -101 0
v -75 -101 0
v -76 -102 0
v -77 -102 0
v -77 -101 0
v -76 -101 0
v -72 -101 0
v -73 -101 0
v -73 -100 0
v -72 -100 0
v -73 -101 0
v -74 -101 0
v -74 -100 0
v -73 -100 0
v -75 -101 0
v -76 -101 0
v -76 -100 0
v -75 -100 0
v -76 -101 0
v -77 -101 0
v -77 -100 0
v -76 -100 0
v -74 -85 0
v -75 -85 0
v -75 -84 0
v -74 -84 0
v -136 -78 0
v -137 -78 0
v -137 -77 0
v -136 -77 0
v -88 -69 0
v -89 -69 0
v -89 -68 0
v -88 -68 0
v -89 -69 0
v -90 -69 0
v -90 -68 0
v -89 -68 0
v -90 -69 0
v -91 -69 0
v -91 -68 0
v -90 -68 0
v -91 -69 0
v -92 -69 0
v -92 -68 0
v -91 -68 0
v -92 -69 0
v -93 -69 0
v -93 -68 0
v -92 -68 0
v -93 -69 0
v -94 -69 0
v -94 -68 0
v -93 -68 0
v -94 -69 0
v -95 -69 0
v -95 -68 0
v -94 -68 0
v -95 -69 0
v -96 -69 0
v -96 -68 0
v -95 -68 0
v -96 -69 0
v -97 -69 0
v -97 -68 0
v -96 -68 0
v -97 -69 0
v -98 -69 0
v -98 -68 0
v -97 -68 0
v -98 -69 0
v -99 -69 0
v -99 -68 0
v -98 -68 0
v -99 -69 0
v -100 -69 0
v -100 -68 0
v -99 -68 0
v -100 -69 0
v -101 -69 0
v -101 -68 0
v -100 -68 0
v -101 -69 0
v -102 -69 0
v -102 -68 0
v -101 -68 0
v -102 -69 0
v -103 -69 0
v -103 -68 0
v -102 -68 0
v -103 -69 0
v -104 -69 0
v -104 -68 0
v -103 -68 0
v -104 -69 0
v -105 -69 0
v -105 -68 0
v -104 -68 0
v -105 -69 0
v -106 -69 0
v -106 -68 0
v -105 -68 0
v -106 -69 0
v -107 -69 0
v -107 -68 0
v -106 -68 0
v -107 -69 0
v -108 -69 0
v -108 -68 0
v -107 -68 0
v -108 -69 0
v -109 -69 0
v -109 -68 0
v -108 -68 0
v -109 -69 0
v -110 -69 0
v -110 -68 0
v -109 -68 0
v -110 -69 0
v -111 -69 0
v -111 -68 0
v -110 -68 0
v -149 -67 0
v -150 -67 0
v -150 -66 0
v -149 -66 0
v -88 -64 0
v -89 -64 0
v -89 -63 0
v -88 -63 0
v -88 -63 0
v -89 -63 0
v -89 -62 0
v -88 -62 0
v -110 -63 0
v -111 -63 0
v -111 -62 0
v -110 -62 0
v -147 -60 0
v -148 -60 0
v -148 -59 0
v -147 -59 0
v -148 -60 0
v -149 -60 0
v -149 -59 0
v -148 -59 0
v -149 -60 0
v -150 -60 0
v -150 -59 0
v -149 -59 0
v -147 -59 0
v -148 -59 0
v -148 -58 0
v -147 -58 0
v -148 -59 0
v -149 -59 0
v -149 -58 0
v -148 -58 0
v -149 -59 0
v -150 -59 0
v -150 -58 0
v -149 -58 0
v -87 -58 0
v -88 -58 0
v -88 -57 0
v -87 -57 0
v -87 -57 0
v -88 -57 0
v -88 -56 0
v -87 -56 0
v -88 -57 0
v -89 -57 0
v -89 -56 0
v -88 -56 0
v -87 -56 0
v -88 -56 0
v -88 -55 0
v -87 -55 0
v -88 -56 0
v -89 -56 0
v -89 -55 0
v -88 -55 0
v -100 -42 0
v -101 -42 0
v -101 -41 0
v -100 -41 0

# Texture cooridinates (Count = 40)
vt 0.25 0.76
vt 0.275 0.76
vt 0.275 0.8
vt 0.25 0.8
vt 0.3 0.76
vt 0.325 0.76
vt 0.325 0.8
vt 0.3 0.8
vt 0.35 0.76
vt 0.375 0.76
vt 0.375 0.8
vt 0.35 0.8
vt 0.3 0.68
vt 0.325 0.68
vt 0.325 0.72
vt 0.3 0.72
vt 0.4 0.76
vt 0.4 0.8
vt 0.35 0.84
vt 0.325 0.84
vt 0.3 0.84
vt 0.275 0.84
vt 0.175 0.6
vt 0.2 0.6
vt 0.2 0.64
vt 0.175 0.64
vt 0.05 0.8
vt 0.075 0.8
vt 0.075 0.84
vt 0.05 0.84
vt 0.4 0.84
vt 0.375 0.84
vt 0.025 0.8
vt 0.025 0.84
vt 0.05 0.88
vt 0.025 0.88
vt 0 0.96
vt 0.025 0.96
vt 0.025 1
vt 0 1

# Normal
vn 0 0 -1

# Mesh description
g Dungeon01_mesh_0005

# Faces
f 1/1/1 2/2/1 3/3/1 4/4/1
f 5/5/1 6/6/1 7/7/1 8/8/1
f 9/5/1 10/6/1 11/7/1 12/8/1
f 13/5/1 14/6/1 15/7/1 16/8/1
f 17/5/1 18/6/1 19/7/1 20/8/1
f 21/9/1 22/10/1 23/11/1 24/12/1
f 25/13/1 26/14/1 27/15/1 28/16/1
f 29/10/1 30/17/1 31/18/1 32/11/1
f 33/5/1 34/6/1 35/7/1 36/8/1
f 37/9/1 38/10/1 39/11/1 40/12/1
f 41/7/1 42/12/1 43/19/1 44/20/1
f 45/3/1 46/8/1 47/21/1 48/22/1
f 49/10/1 50/17/1 51/18/1 52/11/1
f 53/8/1 54/7/1 55/20/1 56/21/1
f 57/23/1 58/24/1 59/25/1 60/26/1
f 61/5/1 62/6/1 63/7/1 64/8/1
f 65/5/1 66/6/1 67/7/1 68/8/1
f 69/5/1 70/6/1 71/7/1 72/8/1
f 73/5/1 74/6/1 75/7/1 76/8/1
f 77/5/1 78/6/1 79/7/1 80/8/1
f 81/5/1 82/6/1 83/7/1 84/8/1
f 85/5/1 86/6/1 87/7/1 88/8/1
f 89/5/1 90/6/1 91/7/1 92/8/1
f 93/5/1 94/6/1 95/7/1 96/8/1
f 97/5/1 98/6/1 99/7/1 100/8/1
f 101/5/1 102/6/1 103/7/1 104/8/1
f 105/5/1 106/6/1 107/7/1 108/8/1
f 109/5/1 110/6/1 111/7/1 112/8/1
f 113/5/1 114/6/1 115/7/1 116/8/1
f 117/5/1 118/6/1 119/7/1 120/8/1
f 121/5/1 122/6/1 123/7/1 124/8/1
f 125/5/1 126/6/1 127/7/1 128/8/1
f 129/5/1 130/6/1 131/7/1 132/8/1
f 133/5/1 134/6/1 135/7/1 136/8/1
f 137/5/1 138/6/1 139/7/1 140/8/1
f 141/5/1 142/6/1 143/7/1 144/8/1
f 145/5/1 146/6/1 147/7/1 148/8/1
f 149/5/1 150/6/1 151/7/1 152/8/1
f 153/2/1 154/5/1 155/8/1 156/3/1
f 157/10/1 158/17/1 159/18/1 160/11/1
f 161/2/1 162/5/1 163/8/1 164/3/1
f 165/3/1 166/8/1 167/21/1 168/22/1
f 169/27/1 170/28/1 171/29/1 172/30/1
f 173/27/1 174/28/1 175/29/1 176/30/1
f 177/2/1 178/5/1 179/8/1 180/3/1
f 181/16/1 182/15/1 183/6/1 184/5/1
f 185/16/1 186/15/1 187/6/1 188/5/1
f 189/11/1 190/18/1 191/31/1 192/32/1
f 193/33/1 194/27/1 195/30/1 196/34/1
f 197/34/1 198/30/1 199/35/1 200/36/1
f 201/2/1 202/5/1 203/8/1 204/3/1
f 205/16/1 206/15/1 207/6/1 208/5/1
f 209/11/1 210/18/1 211/31/1 212/32/1
f 213/37/1 214/38/1 215/39/1 216/40/1

